<?xml version="1.0" encoding="UTF-8"?> <svg xmlns="http://www.w3.org/2000/svg" id="Layer_1" data-name="Layer 1" viewBox="0 0 466.45 466.45"><defs><style>.cls-1{fill:#fff;}.cls-2{fill:#e6e7e8;}.cls-3{fill:none;}.cls-4{fill:#6d6e70;}.cls-5{fill:#8bc53f;}.cls-6{fill:#231f20;}.cls-7{fill:#bbbdbf;}</style></defs><title>GGD_logo</title><path class="cls-1" d="M248.68,481.68a226.72,226.72,0,0,1-160.32-387A226.73,226.73,0,1,1,409,415.28,225.24,225.24,0,0,1,248.68,481.68Z" transform="translate(-15.45 -21.73)"></path><path class="cls-2" d="M248.68,34.73c121.63,0,220.23,98.6,220.23,220.23s-98.6,220.22-220.23,220.22S28.45,376.58,28.45,255,127.05,34.73,248.68,34.73m0-13a233.29,233.29,0,0,0-90.79,448.12A233.29,233.29,0,0,0,339.47,40.06a231.88,231.88,0,0,0-90.79-18.33Z" transform="translate(-15.45 -21.73)"></path><path class="cls-3" d="M383.1,4.35" transform="translate(-15.45 -21.73)"></path><path class="cls-3" d="M332.09,170.37" transform="translate(-15.45 -21.73)"></path><path class="cls-4" d="M182.22,221.67V269c-9.48,3.23-27.42,7.66-45.36,7.66-24.81,0-42.75-6.25-55.25-18.35-12.5-11.69-19.36-29.43-19.15-49.39.2-45.17,33.06-71,77.62-71,17.54,0,35,4.58,41.69,7.8v26.41c-7.46-3.23-27.17-8.8-42.09-8.8-25.61,0-45,14.52-45,43.95,0,28,17.54,44.56,42.74,44.56,7.06,0,12.7-.8,15.12-2V221.44" transform="translate(-15.45 -21.73)"></path><path class="cls-5" d="M302.39,221.67V269c-9.48,3.23-27.43,7.66-45.37,7.66-24.8,0-42.74-6.25-55.25-18.35-12.5-11.69-19.35-29.43-19.15-49.39.2-45.17,33.07-71,77.63-71,17.54,0,35.48,4.58,42.14,7.8v27c-7.46-3.23-27.63-9.4-42.55-9.4-25.6,0-45,14.52-45,43.95,0,28,17.54,44.56,42.74,44.56,7.06,0,12.71-.8,15.13-2V221.44" transform="translate(-15.45 -21.73)"></path><path class="cls-4" d="M336,221.44v28.43c2.42,1.21,8.07,2,15.12,2,25.21,0,42.75-16.54,42.75-44.56,0-29.44-19.36-44-45-44-14.92,0-35.09,6.17-42.55,9.4V146.06C313,142.84,331,138,348.52,138c44.56,0,77.43,25.81,77.63,71,.2,20-6.66,37.7-19.16,49.4-12.5,12.1-30.44,18.35-55.24,18.35-17.95,0-35.89-4.44-45.37-7.67V221.68" transform="translate(-15.45 -21.73)"></path><path class="cls-6" d="M82.16,336.09a16.5,16.5,0,0,0,1.46,7.06,15.16,15.16,0,0,0,4,5.29,17.83,17.83,0,0,0,6,3.32,24.06,24.06,0,0,0,7.59,1.15,14.7,14.7,0,0,0,4.71-.76,18.88,18.88,0,0,0,4.2-2,20.84,20.84,0,0,0,3.47-2.78,18.43,18.43,0,0,0,2.53-3.12l3.25,1.7a27.74,27.74,0,0,1-3.38,3.63,21.24,21.24,0,0,1-4.5,3.08,26.58,26.58,0,0,1-5.78,2.14,30,30,0,0,1-7.2.8,33.15,33.15,0,0,1-10.46-1.55,25.89,25.89,0,0,1-8.06-4.23,19.15,19.15,0,0,1-5.19-6.22A16.12,16.12,0,0,1,73,336.09a16,16,0,0,1,.85-5.13,17.72,17.72,0,0,1,2.44-4.68,20.78,20.78,0,0,1,3.86-4,23.9,23.9,0,0,1,5.14-3.13,31.62,31.62,0,0,1,6.32-2,34.75,34.75,0,0,1,7.3-.73,27.55,27.55,0,0,1,6.81.79,25.92,25.92,0,0,1,5.69,2.14,23.23,23.23,0,0,1,4.56,3.09,26.3,26.3,0,0,1,3.43,3.63l-3.36,1.83a19.84,19.84,0,0,0-6.5-6.68,15.91,15.91,0,0,0-8.26-2.11,23.29,23.29,0,0,0-7.5,1.18,18.42,18.42,0,0,0-6.09,3.38A15.64,15.64,0,0,0,83.66,329,16.32,16.32,0,0,0,82.16,336.09Z" transform="translate(-15.45 -21.73)"></path><path class="cls-6" d="M132.81,317.23h16a32.62,32.62,0,0,1,7.33.73,17.5,17.5,0,0,1,5.26,2,9.15,9.15,0,0,1,3.15,3.09,7.63,7.63,0,0,1,1.06,3.92,7,7,0,0,1-.82,3.29,9.25,9.25,0,0,1-2.3,2.75,15.25,15.25,0,0,1-3.58,2.12,21.37,21.37,0,0,1-4.64,1.37l16.83,18.18h-9L146.06,337.1H140.6v17.61h-7.79Zm7.79,18h4.5a19.41,19.41,0,0,0,4.84-.57,13.28,13.28,0,0,0,3.84-1.6,7.88,7.88,0,0,0,2.53-2.51,6.3,6.3,0,0,0,.9-3.33,6.65,6.65,0,0,0-.72-3.08,7.1,7.1,0,0,0-2-2.41,10.27,10.27,0,0,0-3.1-1.57,13.19,13.19,0,0,0-3.93-.56H140.6Z" transform="translate(-15.45 -21.73)"></path><path class="cls-6" d="M212.88,317.23v2.42H188.49v13.42H204.8v2.42H188.49v16.8h24.39v2.42H180.7V317.23Z" transform="translate(-15.45 -21.73)"></path><path class="cls-6" d="M243.87,316.39l21.77,38.32h-7.9l-7.08-12.5H230.84l-7.31,12.5h-3.91l22.29-38.32Zm-11.67,23.4h17L240.84,325Z" transform="translate(-15.45 -21.73)"></path><path class="cls-6" d="M308.42,317.23v2.42H291.66v35.06h-7.79V319.65H267.12v-2.42Z" transform="translate(-15.45 -21.73)"></path><path class="cls-6" d="M319.32,317.23h7.79v37.48h-7.79Z" transform="translate(-15.45 -21.73)"></path><path class="cls-6" d="M345.1,317.23l17.42,29.82,16.24-29.82h3.69l-21,38.37h-2l-22.58-38.37Z" transform="translate(-15.45 -21.73)"></path><path class="cls-6" d="M424.32,317.23v2.42h-24.4v13.42h16.31v2.42H399.92v16.8h24.4v2.42H392.13V317.23Z" transform="translate(-15.45 -21.73)"></path><rect class="cls-1" x="106.88" y="167.59" width="236.16" height="31.05"></rect><circle class="cls-7" cx="148.84" cy="183.57" r="11.48"></circle><circle class="cls-7" cx="180.63" cy="183.57" r="11.48"></circle><circle class="cls-7" cx="212.41" cy="183.57" r="11.48"></circle><circle class="cls-7" cx="244.19" cy="183.57" r="11.48"></circle><circle class="cls-7" cx="275.98" cy="183.12" r="11.48"></circle><circle class="cls-7" cx="307.76" cy="183.12" r="11.48"></circle></svg> 